<svg fill="none" viewBox="0 0 36 36" xmlns="http://www.w3.org/2000/svg"><path d="m28.5 20.379v-5.379c0-4.8255-3.2775-8.8905-7.7175-10.113-0.4395-1.107-1.5135-1.887-2.7825-1.887s-2.343 0.78-2.7825 1.887c-4.44 1.224-7.7175 5.2875-7.7175 10.113v5.379l-2.5605 2.5605c-0.282 0.2805-0.4395 0.6615-0.4395 1.0605v3c0 0.8295 0.6705 1.5 1.5 1.5h24c0.8295 0 1.5-0.6705 1.5-1.5v-3c0-0.399-0.1575-0.78-0.4395-1.0605l-2.5605-2.5605zm0 5.121h-21v-0.879l2.5605-2.5605c0.282-0.2805 0.4395-0.6615 0.4395-1.0605v-6c0-4.1355 3.3645-7.5 7.5-7.5s7.5 3.3645 7.5 7.5v6c0 0.399 0.1575 0.78 0.4395 1.0605l2.5605 2.5605v0.879zm-10.5 7.5c1.9665 0 3.6105-1.251 4.227-3h-8.454c0.6165 1.749 2.2605 3 4.227 3z" fill="#fff"/></svg>