<svg xmlns="http://www.w3.org/2000/svg" height="512" viewBox="0 0 512.029 512.029" width="512"  xmlns:v="https://vecta.io/nano"><path d="M415.917 355.938l35.236-21.372c24.247-14.738 34.137-31.149 34.137-56.647 0-16.281-7.285-33.601-21.653-51.478-11.794-14.674-25.122-25.579-30.305-29.587-25.248-19.522-56.054-34.472-89.558-43.565 16.851-18.247 34.007-37.665 53.788-60.781.037-.043.073-.087.109-.131l37.798-46.257c9.21-11.271 8.394-27.531-1.898-37.824A28.14 28.14 0 0 0 395.748 6.4L349.36 44.308l-14.29 12.296a7.5 7.5 0 0 0 9.817 11.341l14.161-12.185 46.191-37.745a13.19 13.19 0 0 1 17.726.889 13.19 13.19 0 0 1 .889 17.726l-37.745 46.191c-35.347 41.303-62.234 70.7-94.103 102.814l-35.773-35.773c22.405-22.238 42.979-41.578 65.967-62.028a7.5 7.5 0 1 0-9.969-11.208c-24.792 22.054-46.798 42.828-71.244 67.252-57.988 4.484-111.692 25.257-151.302 58.553-40.591 34.122-62.946 78.535-62.946 125.058 0 49.674 25.042 96.246 70.515 131.136 44.882 34.438 104.446 53.403 167.719 53.403 46.969 0 92.395-10.552 131.369-30.516 3.687-1.889 5.144-6.408 3.256-10.095a7.5 7.5 0 0 0-10.095-3.256c-36.867 18.884-79.928 28.866-124.53 28.866-123.092 0-223.234-76.055-223.234-169.539 0-42.018 20.456-82.353 57.599-113.576 33.102-27.826 76.845-46.354 124.718-53.105l-64.226 64.226c-15.523-.236-30.407 5.721-41.472 16.786-5.931 5.931-10.404 12.923-13.294 20.783-2.515 6.837-3.704 13.984-3.533 21.242.32 13.634-4.552 26.192-13.72 35.36l-.092.092c-5.761 5.761-8.279 13.979-6.736 21.982 1.541 7.991 6.923 14.672 14.398 17.871 5.312 2.274 10.774 3.98 16.303 5.146-3.942 19.829 3.471 42.186 26.285 49.508 9.781 3.139 19.69 3.056 29.277 2.973l6.489-.016c20.339.203 41.06 4.332 59.923 11.94l4.172 1.71c9.892 4.086 20.716 8.558 31.736 8.558 4.544 0 9.123-.761 13.682-2.623 11.199-4.575 19.783-15.679 22.4-28.979 2.01-10.214.753-21.713-3.739-34.176-10.59-29.381-34.512-53.078-63.99-63.39-7.845-2.745-16.077-4.5-24.524-5.254 2.251-7.333 3.529-15.001 3.786-22.851l80.135-80.136 34.799-35.78c34.613 8.301 66.424 23.131 92.043 42.94 4.761 3.681 16.999 13.693 27.789 27.118 12.173 15.146 18.345 29.304 18.345 42.081 0 20.276-7.046 31.745-26.922 43.826l-35.23 21.368c-11.861 7.194-17.403 21.512-13.477 34.817 4.538 15.379 20.353 24.689 36.001 21.202l2.808-.626c8.293-1.847 16.396 3.161 18.447 11.406 1.262 5.073-.079 10.386-3.585 14.213-9.672 10.557-20.944 20.297-33.502 28.95a7.5 7.5 0 0 0-1.92 10.431c1.455 2.111 3.799 3.245 6.183 3.245 1.467 0 2.949-.429 4.249-1.325 13.487-9.293 25.616-19.78 36.05-31.168 6.913-7.545 9.561-18 7.082-27.967-4.033-16.21-19.962-26.059-36.268-22.426l-2.808.626c-7.974 1.779-16.036-2.968-18.349-10.806-2.004-6.781.821-14.079 6.866-17.746zm-206.072-88.121l-35.793-35.793 71.565-71.565 35.792 35.793zm-50.604-27.799l42.87 42.869c-.746 13.399-5.109 26.106-12.646 36.992-.587-3-1.391-6.035-2.496-9.011-4.096-11.031-11.853-19.529-21.28-23.315-3.011-1.208-5.943-1.867-8.778-2.504-2.822-.633-5.487-1.232-7.567-2.286-3.327-1.685-6.233-5.082-9.164-8.71l-.425-.527c-3.405-4.223-7.265-9.008-12.709-12.332-1.184-.723-2.42-1.335-3.683-1.851 1.608-2.478 3.475-4.792 5.601-6.918 8.085-8.083 18.944-12.485 30.277-12.407zM95.71 338.44c-.608-3.155.345-6.266 2.614-8.535l.092-.092c11.921-11.92 18.521-28.803 18.11-46.319-.082-3.49.262-6.946 1.024-10.329.574.225 1.141.505 1.68.834 3.22 1.965 5.954 5.355 8.848 8.945l.432.536c3.837 4.751 8.084 9.642 14.056 12.667 3.748 1.898 7.631 2.771 11.058 3.54 2.359.53 4.588 1.03 6.476 1.788 5.512 2.214 10.181 7.542 12.808 14.616 2.227 5.999 2.871 12.538 3.045 18.509-20.766 17.181-49.707 21.448-74.67 10.762-2.936-1.257-4.967-3.78-5.573-6.922zm112.543-19.222c8.553.402 16.867 1.997 24.71 4.741 24.883 8.705 45.893 29.518 54.832 54.317 3.557 9.87 4.611 18.683 3.133 26.193-1.629 8.28-6.872 15.341-13.355 17.99-9.905 4.046-22.164-1.016-34.018-5.913l-4.289-1.757c-20.876-8.419-42.874-12.803-65.384-13.027a363.62 363.62 0 0 0-6.766.016c-8.786.073-17.083.146-24.566-2.256-15.322-4.917-18.935-20.367-15.92-33.404 1.028.036 2.057.061 3.084.061 21.371 0 42.483-7.803 58.832-22.654 1.189-1.08 2.17-2.01 3.091-2.931 6.415-6.415 11.695-13.653 15.771-21.467a7.4 7.4 0 0 0 .845.091zm124.921-38.152c-10.311.678-18.909 5.292-24.212 12.992s-6.546 17.378-3.503 27.253c2.849 9.242 9.202 17.626 17.888 23.608 7.911 5.448 16.993 8.377 25.841 8.377a39.31 39.31 0 0 0 2.594-.085c10.311-.678 18.909-5.292 24.212-12.992 10.548-15.318 4.095-38.134-14.385-50.86-8.687-5.982-18.787-8.928-28.435-8.293zm30.466 50.646c-2.645 3.841-7.206 6.161-12.842 6.532-6.294.415-13.024-1.603-18.943-5.679s-10.202-9.641-12.06-15.672c-1.664-5.398-1.123-10.486 1.522-14.327s7.206-6.161 12.842-6.532c.54-.036 1.083-.053 1.629-.053 5.816 0 11.903 2.005 17.314 5.732 11.47 7.899 16.296 21.637 10.538 29.999zM247.721 194.148a7.5 7.5 0 0 0-10.606 0l-30.17 30.17a7.5 7.5 0 0 0 0 10.606c1.464 1.464 3.384 2.197 5.303 2.197s3.839-.732 5.303-2.197l30.17-30.17a7.5 7.5 0 0 0 0-10.606z" fill="#fff"/></svg>