<svg width="35" height="35" viewBox="0 0 35 35" fill="none" xmlns="http://www.w3.org/2000/svg"><path d="M1.0044 23.0879L4.42106 28.9988C4.89256 29.8153 5.93806 30.0955 6.75465 29.6223L9.13948 28.2454C10.1303 29.0261 11.2254 29.6667 12.3768 30.145V32.875C12.3768 33.818 13.1404 34.5833 14.0851 34.5833H20.9184C21.8631 34.5833 22.6268 33.818 22.6268 32.875V30.145C23.7782 29.6667 24.8715 29.0261 25.8641 28.2454L28.2489 29.6223C29.0638 30.0921 30.1127 29.8102 30.5825 28.9988L33.9991 23.0879C34.4689 22.2748 34.1871 21.2241 33.3756 20.7543L31.0318 19.3996C31.1206 18.7693 31.1667 18.1338 31.1667 17.5C31.1667 16.8662 31.1206 16.2307 31.0284 15.6003L33.3722 14.2456C34.1854 13.7758 34.4672 12.7252 33.9957 11.912L30.5791 6.00117C30.1076 5.18458 29.0621 4.90442 28.2455 5.37763L25.8606 6.75454C24.8698 5.97383 23.7765 5.3315 22.6251 4.85488V2.12496C22.6251 1.18196 21.8614 0.416626 20.9167 0.416626H14.0834C13.1387 0.416626 12.3751 1.18196 12.3751 2.12496V4.85488C11.2236 5.33321 10.1303 5.97383 9.13777 6.75454L6.75465 5.37763C5.93636 4.90442 4.89256 5.18458 4.42106 6.00117L1.0044 11.912C0.534606 12.7252 0.816481 13.7758 1.62794 14.2456L3.97177 15.6003C3.87952 16.2307 3.8334 16.8662 3.8334 17.5C3.8334 18.1338 3.87952 18.7693 3.97177 19.3996L1.62794 20.7543C0.814773 21.2241 0.532898 22.2748 1.0044 23.0879ZM17.5001 10.6666C21.2686 10.6666 24.3334 13.7314 24.3334 17.5C24.3334 21.2685 21.2686 24.3333 17.5001 24.3333C13.7315 24.3333 10.6667 21.2685 10.6667 17.5C10.6667 13.7314 13.7315 10.6666 17.5001 10.6666Z" fill="white"/></svg>
